<svg xmlns="http://www.w3.org/2000/svg" width="150" height="20" viewBox="0 0 150 20"><path d="M0 0h12.4v1.3H6.9v14.3H5.4V1.3H0V0zm13.6 4.3h1.3V7c.7-1.8 2.2-2.9 4.3-2.8v1.4c-2.5-.1-4.2 1.7-4.2 4v6h-1.4V4.3zM20.5 0h1.4v2.2h-1.4V0zm0 4.3h1.4v11.3h-1.4V4.3zm4 0h1.4v1.9c.5-1.4 2-2.3 3.6-2.3 3.2 0 4.1 1.7 4.1 4.3v7.3h-1.4v-7c0-1.9-.6-3.4-2.9-3.4-2.2 0-3.5 1.7-3.5 3.9v6.6h-1.4V4.3zM36.2 0h1.4v2.2h-1.4V0zm0 4.3h1.4v11.3h-1.4V4.3zm6.2 0h2.3v1.2h-2.3v7.6c0 .9.1 1.4 1.1 1.5.4 0 .8 0 1.2-.1v1.2h-1.2c-1.8 0-2.5-.6-2.4-2.5V5.5h-2V4.3h2V.9h1.4v3.4zm3.1 0H47l3.7 9.6 3.5-9.6h1.4l-4.9 13c-.8 1.9-1.2 2.4-3 2.4-.5 0-.8 0-1-.1v-1.2c.3.1.6.1.9.1 1.2 0 1.5-.7 2-1.8l.5-1.3-4.6-11.1zM63.1 0h2.2l5.4 13.7L76.1 0h2.2v15.6h-1.5V2.1l-5.3 13.5H70L64.7 2.1v13.5h-1.5V0zm18 0h1.4v2.2h-1.4V0zm0 4.3h1.4v11.3h-1.4V4.3zm4 0h1.3V7c.7-1.8 2.2-2.9 4.3-2.8v1.4c-2.5-.1-4.2 1.7-4.2 4v6h-1.4V4.3zm6.9 0h1.3V7c.7-1.8 2.2-2.9 4.3-2.8v1.4c-2.5-.1-4.2 1.7-4.2 4v6H92V4.3zm17 5.7c0 3.2-1.9 6-5.3 6-3.5 0-5.3-2.7-5.3-6 0-3.2 1.9-6 5.3-6s5.3 2.7 5.3 6zm-9.3 0c0 2.4 1.3 4.8 4 4.8 2.6 0 4-2.4 4-4.8s-1.3-4.8-4-4.8-4 2.4-4 4.8zm11.4-5.7h1.3V7c.7-1.8 2.2-2.9 4.3-2.8v1.4c-2.5-.1-4.2 1.7-4.2 4v6h-1.4V4.3zm12.9 0h1.3v2.1c.6-1.5 2.2-2.5 4-2.5 3.4 0 5.1 2.8 5.1 6s-1.6 6-5.1 6c-1.7 0-3.3-.9-3.9-2.5v6.3H124V4.3zm5.3.9c-3 0-4 2.2-4 4.8 0 2.3 1 4.8 4 4.8 2.6 0 3.7-2.5 3.7-4.8 0-2.4-1-4.8-3.7-4.8zm7.3-5.2h1.4v15.6h-1.4V0zm11.9 7.9c-.4-1.7-1.4-2.7-3.2-2.7-2.6 0-4 2.4-4 4.8s1.3 4.8 4 4.8c1.7 0 3.1-1.3 3.3-3.2h1.4c-.4 2.7-2.1 4.4-4.7 4.4-3.5 0-5.3-2.7-5.3-6 0-3.2 1.9-6 5.3-6 2.4 0 4.3 1.3 4.6 3.9h-1.4z" fill="#FFF"/></svg>